<svg data-v-423bf9ae="" xmlns="http://www.w3.org/2000/svg" viewBox="0 0 59.999987738475575 60" class="icon"><!----><!----><!----><!----><g data-v-423bf9ae="" id="ca2349bf-b210-4c17-aca6-06c608d40d0f" transform="matrix(1.0714282989501953,0,0,1.0714282989501953,0.0000039509359339717776,0.00000762939453125)" stroke="none" fill="white"><path d="M31.412 20.156a14.386 14.386 0 0 1 1.779-2.07 14.636 14.636 0 0 1 4.622-2.986c.88-.357 1.792-.63 2.724-.812a15.325 15.325 0 0 1 5.845 0c.931.183 1.843.455 2.723.812a14.606 14.606 0 0 1 4.622 2.991c.257.247.5.511.734.776a27.854 27.854 0 0 0-2.348-5.07 11.235 11.235 0 0 0-3.041-3.335c-.63-.461-1.305-.86-2.014-1.188-.711-.33-1.452-.59-2.213-.776a12.607 12.607 0 0 0-4.744-.241 12.9 12.9 0 0 0-2.393.57 13.247 13.247 0 0 0-4.395 2.537 12.781 12.781 0 0 0-2.981 3.816c-.359.704-.65 1.44-.871 2.2a11.945 11.945 0 0 0-.414 4.639 1 1 0 0 1-1.988.215 13.938 13.938 0 0 1 .48-5.415 14.53 14.53 0 0 1 1.012-2.552A14.749 14.749 0 0 1 32 9.852a15.221 15.221 0 0 1 5.061-2.922 14.889 14.889 0 0 1 2.764-.659 14.622 14.622 0 0 1 5.5.28c.336.082.663.189.991.295a28.145 28.145 0 0 0-4.548-3.214 11.221 11.221 0 0 0-4.287-1.361 11.79 11.79 0 0 0-2.339-.021c-.779.07-1.549.216-2.3.434a12.593 12.593 0 0 0-4.229 2.163 12.939 12.939 0 0 0-1.788 1.692 13.243 13.243 0 0 0-2.535 4.391 12.775 12.775 0 0 0-.675 4.8c.041.79.157 1.573.345 2.341a12.206 12.206 0 0 0 1.956 4.229 1 1 0 1 1-1.616 1.179 13.96 13.96 0 0 1-1.39-2.356 14.165 14.165 0 0 1-.9-2.576c-.218-.89-.352-1.8-.4-2.716a14.954 14.954 0 0 1 2-8.22c.49-.85 1.062-1.649 1.707-2.388a14.669 14.669 0 0 1 6.965-4.46c.345-.1.7-.176 1.047-.249A27.97 27.97 0 0 0 28 0a11.518 11.518 0 0 0-4.658.979 11.8 11.8 0 0 0-2.034 1.151 12.311 12.311 0 0 0-3.249 3.385 12.721 12.721 0 0 0-1.811 4.49 13.253 13.253 0 0 0 0 5.073 12.7 12.7 0 0 0 1.811 4.49c.43.663.923 1.284 1.47 1.855a12.18 12.18 0 0 0 1.778 1.528 11.8 11.8 0 0 0 2.036 1.149 1 1 0 0 1-.807 1.83 13.924 13.924 0 0 1-4.45-3.125 14.652 14.652 0 0 1-2.986-4.617 14.98 14.98 0 0 1-.813-2.725 15.274 15.274 0 0 1 0-5.843c.184-.932.456-1.845.813-2.726a14.616 14.616 0 0 1 2.991-4.621c.247-.256.51-.5.776-.734a27.769 27.769 0 0 0-5.071 2.349 11.213 11.213 0 0 0-3.335 3.04c-.461.63-.859 1.306-1.187 2.015-.329.71-.589 1.452-.776 2.212a12.579 12.579 0 0 0-.345 2.343c-.042.801-.008 1.605.1 2.4.114.815.305 1.616.57 2.395a13.267 13.267 0 0 0 2.536 4.392 12.692 12.692 0 0 0 6.017 3.854c.751.218 1.521.363 2.3.434.778.07 1.562.063 2.339-.021a1 1 0 1 1 .216 1.988 13.661 13.661 0 0 1-2.735.025 14.279 14.279 0 0 1-2.682-.505A14.661 14.661 0 0 1 9.853 24a15.21 15.21 0 0 1-2.923-5.06 14.8 14.8 0 0 1-.78-5.546c.048-.916.182-1.826.4-2.717.082-.335.188-.663.295-.991a28.109 28.109 0 0 0-3.21 4.539 11.232 11.232 0 0 0-1.366 4.3c-.084.777-.091 1.56-.021 2.338a12.346 12.346 0 0 0 1.307 4.5 12.764 12.764 0 0 0 2.981 3.816 13.23 13.23 0 0 0 4.394 2.537 13 13 0 0 0 2.393.57 12.724 12.724 0 0 0 4.741-.246 12.158 12.158 0 0 0 2.214-.775 11.892 11.892 0 0 0 2.022-1.181 1 1 0 0 1 1.178 1.616 13.868 13.868 0 0 1-4.932 2.288 14.508 14.508 0 0 1-3.469.42 14.8 14.8 0 0 1-4.793-.8 15.212 15.212 0 0 1-5.06-2.922 14.908 14.908 0 0 1-1.954-2.063 14.606 14.606 0 0 1-2.507-4.9 13.89 13.89 0 0 1-.249-1.044A27.951 27.951 0 0 0 0 28c-.001 1.604.332 3.19.979 4.657a12.1 12.1 0 0 0 2.679 3.814 12.593 12.593 0 0 0 3.988 2.581c.762.308 1.552.542 2.359.7 1.675.325 3.396.325 5.071 0a12.671 12.671 0 0 0 6.348-3.281 12.275 12.275 0 0 0 1.528-1.779c.449-.639.833-1.32 1.148-2.035a1 1 0 0 1 1.83.806c-.37.836-.82 1.633-1.345 2.381a14.386 14.386 0 0 1-1.779 2.07 14.646 14.646 0 0 1-4.621 2.991c-.88.357-1.793.63-2.725.812-1.93.377-3.915.377-5.845 0a14.917 14.917 0 0 1-2.715-.812 14.606 14.606 0 0 1-4.622-2.991c-.257-.247-.5-.511-.734-.776a27.854 27.854 0 0 0 2.348 5.07 11.235 11.235 0 0 0 3.041 3.335c.63.461 1.305.86 2.014 1.188.711.33 1.452.59 2.213.776 1.552.38 3.162.462 4.744.241a12.9 12.9 0 0 0 2.393-.57 13.247 13.247 0 0 0 4.395-2.537 12.781 12.781 0 0 0 2.981-3.816c.359-.704.65-1.44.871-2.2a11.945 11.945 0 0 0 .414-4.639 1 1 0 1 1 1.988-.215 13.938 13.938 0 0 1-.48 5.415 14.53 14.53 0 0 1-1.012 2.552A14.749 14.749 0 0 1 24 46.148a15.221 15.221 0 0 1-5.062 2.922 14.737 14.737 0 0 1-5.545.779 14.533 14.533 0 0 1-2.716-.4c-.336-.082-.663-.189-.991-.295a28.145 28.145 0 0 0 4.548 3.214 11.221 11.221 0 0 0 4.287 1.361c.777.085 1.56.092 2.339.021.779-.07 1.549-.216 2.3-.434a12.749 12.749 0 0 0 4.24-2.163 12.939 12.939 0 0 0 1.788-1.692 13.243 13.243 0 0 0 2.535-4.391c.53-1.542.758-3.172.675-4.8a12.582 12.582 0 0 0-.345-2.341 11.88 11.88 0 0 0-1.969-4.229 1 1 0 1 1 1.616-1.179 13.96 13.96 0 0 1 1.39 2.356c.382.828.684 1.69.9 2.576.218.89.352 1.8.4 2.716a14.773 14.773 0 0 1-.781 5.547 15.067 15.067 0 0 1-2.916 5.061 14.669 14.669 0 0 1-6.965 4.46c-.345.1-.7.176-1.047.249A27.97 27.97 0 0 0 28 56c1.604.002 3.19-.332 4.658-.979a11.8 11.8 0 0 0 2.034-1.151 12.311 12.311 0 0 0 3.249-3.385 12.721 12.721 0 0 0 1.811-4.49 13.253 13.253 0 0 0 0-5.073 12.7 12.7 0 0 0-1.811-4.49 12.549 12.549 0 0 0-1.47-1.855 12.18 12.18 0 0 0-1.778-1.528 11.8 11.8 0 0 0-2.036-1.149 1 1 0 1 1 .807-1.83 13.924 13.924 0 0 1 4.45 3.125 14.652 14.652 0 0 1 2.986 4.62c.357.88.629 1.793.813 2.725.376 1.93.376 3.913 0 5.843a14.943 14.943 0 0 1-.813 2.726 14.616 14.616 0 0 1-2.991 4.621c-.247.256-.51.5-.776.734a27.769 27.769 0 0 0 5.071-2.349 11.213 11.213 0 0 0 3.335-3.04c.461-.63.859-1.306 1.187-2.015.329-.71.589-1.452.776-2.212.188-.768.304-1.553.345-2.343.042-.801.008-1.605-.1-2.4a13.017 13.017 0 0 0-.57-2.395 13.267 13.267 0 0 0-2.536-4.392 12.692 12.692 0 0 0-6.017-3.854 12.218 12.218 0 0 0-2.3-.434 11.64 11.64 0 0 0-2.339.021 1 1 0 0 1-.216-1.988 13.8 13.8 0 0 1 2.735-.025c.908.082 1.806.251 2.682.505A14.661 14.661 0 0 1 46.147 32a15.21 15.21 0 0 1 2.923 5.06 14.8 14.8 0 0 1 .78 5.546 14.626 14.626 0 0 1-.4 2.717 11.63 11.63 0 0 1-.3.991 28.109 28.109 0 0 0 3.21-4.539 11.232 11.232 0 0 0 1.366-4.3c.084-.777.091-1.56.021-2.338a12.346 12.346 0 0 0-1.307-4.5 12.764 12.764 0 0 0-2.981-3.816 13.23 13.23 0 0 0-4.394-2.537 12.782 12.782 0 0 0-4.795-.674 12.443 12.443 0 0 0-4.555 1.121c-.709.328-1.384.725-2.015 1.185a1 1 0 0 1-1.178-1.616 13.868 13.868 0 0 1 4.932-2.288c.89-.219 1.8-.353 2.716-.4a14.769 14.769 0 0 1 5.546.779c1.86.638 3.578 1.63 5.06 2.922.716.625 1.37 1.317 1.954 2.066a14.606 14.606 0 0 1 2.507 4.9c.1.344.176.694.249 1.044.341-1.754.513-3.536.514-5.323a11.518 11.518 0 0 0-.979-4.657 12.1 12.1 0 0 0-2.679-3.814 12.593 12.593 0 0 0-3.988-2.581 12.966 12.966 0 0 0-2.359-.7 13.309 13.309 0 0 0-5.071 0 12.671 12.671 0 0 0-6.348 3.281 12.275 12.275 0 0 0-1.528 1.779c-.449.639-.833 1.32-1.148 2.035a1 1 0 1 1-1.83-.806c.369-.835.818-1.633 1.342-2.381z"></path></g><!----></svg>