<svg data-v-423bf9ae="" xmlns="http://www.w3.org/2000/svg" viewBox="0 0 451 90" class="iconLeft"><!----><!----><!----><g data-v-423bf9ae="" id="cbf32827-a451-4910-b93e-2c2f87034ffa" fill="white" transform="matrix(4.97925329208374,0,0,4.97925329208374,107.9087142944336,-3.7717864513397217)"><path d="M8.53 4.07C8.53 4.10 8.53 4.13 8.51 4.16L5.64 15.58C5.64 15.60 5.63 15.61 5.63 15.62C5.60 15.74 5.49 15.82 5.38 15.82L3.57 15.82C3.44 15.82 3.35 15.74 3.32 15.61L0.43 4.16C0.43 4.14 0.42 4.14 0.42 4.13L0.42 4.07C0.42 3.91 0.55 3.78 0.69 3.78L2.38 3.78C2.51 3.78 2.60 3.86 2.65 3.99L2.65 4.02L4.47 11.30L6.30 4.02L6.30 3.99C6.34 3.86 6.44 3.78 6.57 3.78L8.25 3.78C8.40 3.78 8.53 3.91 8.53 4.07ZM14.76 15.82C11.44 15.82 8.74 13.12 8.74 9.80C8.74 6.48 11.44 3.78 14.76 3.78C18.07 3.78 20.78 6.48 20.78 9.80C20.78 13.12 18.07 15.82 14.76 15.82ZM14.76 5.96C12.64 5.96 10.92 7.69 10.92 9.80C10.92 11.91 12.64 13.62 14.76 13.62C16.87 13.62 18.58 11.91 18.58 9.80C18.58 7.69 16.87 5.96 14.76 5.96ZM30.38 15.37L28.15 11.42L27.85 10.89L27.78 10.77C29.81 10.32 30.86 8.82 30.86 7.35C30.86 6.38 30.41 5.46 29.64 4.82C28.85 4.14 27.75 3.79 26.47 3.79L22.39 3.79C22.23 3.79 22.11 3.92 22.11 4.06L22.11 5.17L22.25 5.42L22.25 5.43L24.11 8.71L22.11 8.71L22.11 15.54C22.11 15.69 22.23 15.82 22.39 15.82L24.02 15.82C24.16 15.82 24.29 15.69 24.29 15.54L24.29 10.89L25.34 10.89L25.63 11.42L28.03 15.65L28.06 15.69C28.10 15.76 28.18 15.82 28.28 15.82L30.16 15.82C30.31 15.82 30.42 15.69 30.42 15.53C30.42 15.48 30.42 15.44 30.39 15.40ZM26.32 8.19L25.07 5.98L26.47 5.98C27.99 5.98 28.66 6.69 28.66 7.35C28.66 7.91 28.15 8.53 27.02 8.68C26.89 8.69 26.75 8.71 26.61 8.71ZM39.97 5.68C39.97 5.84 39.82 5.96 39.63 5.96L36.96 5.96L36.96 15.47C36.96 15.65 36.83 15.81 36.69 15.81L35.04 15.81C34.90 15.81 34.78 15.65 34.78 15.47L34.78 5.96L32.05 5.96C31.89 5.96 31.77 5.84 31.77 5.68L31.77 4.05C31.77 3.89 31.89 3.78 32.05 3.78L39.63 3.78C39.82 3.78 39.97 3.89 39.97 4.05ZM49.36 15.54C49.36 15.69 49.24 15.82 49.10 15.82L41.44 15.82C41.29 15.82 41.16 15.69 41.16 15.54L41.16 4.06C41.16 3.91 41.29 3.78 41.44 3.78L48.82 3.78C48.97 3.78 49.10 3.91 49.10 4.06L49.10 5.70C49.10 5.85 48.97 5.96 48.82 5.96L43.34 5.96L43.34 8.71L48.54 8.71C48.69 8.71 48.82 8.82 48.82 8.97L48.82 10.61C48.82 10.77 48.69 10.89 48.54 10.89L43.34 10.89L43.34 13.62L49.10 13.62C49.24 13.62 49.36 13.75 49.36 13.90ZM59.11 15.54C59.11 15.69 58.98 15.82 58.84 15.82L51.18 15.82C51.03 15.82 50.90 15.69 50.90 15.54L50.90 4.06C50.90 3.91 51.03 3.78 51.18 3.78L58.56 3.78C58.72 3.78 58.84 3.91 58.84 4.06L58.84 5.70C58.84 5.85 58.72 5.96 58.56 5.96L53.09 5.96L53.09 8.71L58.28 8.71C58.44 8.71 58.56 8.82 58.56 8.97L58.56 10.61C58.56 10.77 58.44 10.89 58.28 10.89L53.09 10.89L53.09 13.62L58.84 13.62C58.98 13.62 59.11 13.75 59.11 13.90ZM65.91 9.79L68.82 15.37L68.84 15.40C68.85 15.43 68.87 15.47 68.87 15.51C68.87 15.68 68.74 15.81 68.59 15.81L66.74 15.81C66.64 15.81 66.56 15.75 66.51 15.67L66.50 15.64L64.68 12.15L62.87 15.64L62.86 15.67C62.82 15.75 62.72 15.81 62.62 15.81L60.79 15.81C60.63 15.81 60.51 15.68 60.51 15.51C60.51 15.47 60.52 15.43 60.54 15.40L60.55 15.37L63.45 9.79L60.56 4.24L60.52 4.14C60.51 4.12 60.51 4.09 60.51 4.06C60.51 4.02 60.52 3.98 60.54 3.93L60.55 3.91C60.59 3.82 60.68 3.77 60.79 3.77L62.62 3.77C62.73 3.77 62.82 3.84 62.87 3.92L64.68 7.41L66.50 3.92C66.54 3.84 66.64 3.77 66.74 3.77L68.59 3.77C68.68 3.77 68.77 3.82 68.82 3.91L68.84 3.93C68.85 3.98 68.87 4.02 68.87 4.06C68.87 4.09 68.85 4.12 68.85 4.14L68.80 4.24Z"></path></g><!----><g data-v-423bf9ae="" id="d9ddae4b-9990-4b39-a203-542b969e8358" transform="matrix(1.6071425676345825,0,0,1.6071425676345825,0.000011171612641192041,1.0000004768371582)" stroke="none" fill="white"><path d="M31.412 20.156a14.386 14.386 0 0 1 1.779-2.07 14.636 14.636 0 0 1 4.622-2.986c.88-.357 1.792-.63 2.724-.812a15.325 15.325 0 0 1 5.845 0c.931.183 1.843.455 2.723.812a14.606 14.606 0 0 1 4.622 2.991c.257.247.5.511.734.776a27.854 27.854 0 0 0-2.348-5.07 11.235 11.235 0 0 0-3.041-3.335c-.63-.461-1.305-.86-2.014-1.188-.711-.33-1.452-.59-2.213-.776a12.607 12.607 0 0 0-4.744-.241 12.9 12.9 0 0 0-2.393.57 13.247 13.247 0 0 0-4.395 2.537 12.781 12.781 0 0 0-2.981 3.816c-.359.704-.65 1.44-.871 2.2a11.945 11.945 0 0 0-.414 4.639 1 1 0 0 1-1.988.215 13.938 13.938 0 0 1 .48-5.415 14.53 14.53 0 0 1 1.012-2.552A14.749 14.749 0 0 1 32 9.852a15.221 15.221 0 0 1 5.061-2.922 14.889 14.889 0 0 1 2.764-.659 14.622 14.622 0 0 1 5.5.28c.336.082.663.189.991.295a28.145 28.145 0 0 0-4.548-3.214 11.221 11.221 0 0 0-4.287-1.361 11.79 11.79 0 0 0-2.339-.021c-.779.07-1.549.216-2.3.434a12.593 12.593 0 0 0-4.229 2.163 12.939 12.939 0 0 0-1.788 1.692 13.243 13.243 0 0 0-2.535 4.391 12.775 12.775 0 0 0-.675 4.8c.041.79.157 1.573.345 2.341a12.206 12.206 0 0 0 1.956 4.229 1 1 0 1 1-1.616 1.179 13.96 13.96 0 0 1-1.39-2.356 14.165 14.165 0 0 1-.9-2.576c-.218-.89-.352-1.8-.4-2.716a14.954 14.954 0 0 1 2-8.22c.49-.85 1.062-1.649 1.707-2.388a14.669 14.669 0 0 1 6.965-4.46c.345-.1.7-.176 1.047-.249A27.97 27.97 0 0 0 28 0a11.518 11.518 0 0 0-4.658.979 11.8 11.8 0 0 0-2.034 1.151 12.311 12.311 0 0 0-3.249 3.385 12.721 12.721 0 0 0-1.811 4.49 13.253 13.253 0 0 0 0 5.073 12.7 12.7 0 0 0 1.811 4.49c.43.663.923 1.284 1.47 1.855a12.18 12.18 0 0 0 1.778 1.528 11.8 11.8 0 0 0 2.036 1.149 1 1 0 0 1-.807 1.83 13.924 13.924 0 0 1-4.45-3.125 14.652 14.652 0 0 1-2.986-4.617 14.98 14.98 0 0 1-.813-2.725 15.274 15.274 0 0 1 0-5.843c.184-.932.456-1.845.813-2.726a14.616 14.616 0 0 1 2.991-4.621c.247-.256.51-.5.776-.734a27.769 27.769 0 0 0-5.071 2.349 11.213 11.213 0 0 0-3.335 3.04c-.461.63-.859 1.306-1.187 2.015-.329.71-.589 1.452-.776 2.212a12.579 12.579 0 0 0-.345 2.343c-.042.801-.008 1.605.1 2.4.114.815.305 1.616.57 2.395a13.267 13.267 0 0 0 2.536 4.392 12.692 12.692 0 0 0 6.017 3.854c.751.218 1.521.363 2.3.434.778.07 1.562.063 2.339-.021a1 1 0 1 1 .216 1.988 13.661 13.661 0 0 1-2.735.025 14.279 14.279 0 0 1-2.682-.505A14.661 14.661 0 0 1 9.853 24a15.21 15.21 0 0 1-2.923-5.06 14.8 14.8 0 0 1-.78-5.546c.048-.916.182-1.826.4-2.717.082-.335.188-.663.295-.991a28.109 28.109 0 0 0-3.21 4.539 11.232 11.232 0 0 0-1.366 4.3c-.084.777-.091 1.56-.021 2.338a12.346 12.346 0 0 0 1.307 4.5 12.764 12.764 0 0 0 2.981 3.816 13.23 13.23 0 0 0 4.394 2.537 13 13 0 0 0 2.393.57 12.724 12.724 0 0 0 4.741-.246 12.158 12.158 0 0 0 2.214-.775 11.892 11.892 0 0 0 2.022-1.181 1 1 0 0 1 1.178 1.616 13.868 13.868 0 0 1-4.932 2.288 14.508 14.508 0 0 1-3.469.42 14.8 14.8 0 0 1-4.793-.8 15.212 15.212 0 0 1-5.06-2.922 14.908 14.908 0 0 1-1.954-2.063 14.606 14.606 0 0 1-2.507-4.9 13.89 13.89 0 0 1-.249-1.044A27.951 27.951 0 0 0 0 28c-.001 1.604.332 3.19.979 4.657a12.1 12.1 0 0 0 2.679 3.814 12.593 12.593 0 0 0 3.988 2.581c.762.308 1.552.542 2.359.7 1.675.325 3.396.325 5.071 0a12.671 12.671 0 0 0 6.348-3.281 12.275 12.275 0 0 0 1.528-1.779c.449-.639.833-1.32 1.148-2.035a1 1 0 0 1 1.83.806c-.37.836-.82 1.633-1.345 2.381a14.386 14.386 0 0 1-1.779 2.07 14.646 14.646 0 0 1-4.621 2.991c-.88.357-1.793.63-2.725.812-1.93.377-3.915.377-5.845 0a14.917 14.917 0 0 1-2.715-.812 14.606 14.606 0 0 1-4.622-2.991c-.257-.247-.5-.511-.734-.776a27.854 27.854 0 0 0 2.348 5.07 11.235 11.235 0 0 0 3.041 3.335c.63.461 1.305.86 2.014 1.188.711.33 1.452.59 2.213.776 1.552.38 3.162.462 4.744.241a12.9 12.9 0 0 0 2.393-.57 13.247 13.247 0 0 0 4.395-2.537 12.781 12.781 0 0 0 2.981-3.816c.359-.704.65-1.44.871-2.2a11.945 11.945 0 0 0 .414-4.639 1 1 0 1 1 1.988-.215 13.938 13.938 0 0 1-.48 5.415 14.53 14.53 0 0 1-1.012 2.552A14.749 14.749 0 0 1 24 46.148a15.221 15.221 0 0 1-5.062 2.922 14.737 14.737 0 0 1-5.545.779 14.533 14.533 0 0 1-2.716-.4c-.336-.082-.663-.189-.991-.295a28.145 28.145 0 0 0 4.548 3.214 11.221 11.221 0 0 0 4.287 1.361c.777.085 1.56.092 2.339.021.779-.07 1.549-.216 2.3-.434a12.749 12.749 0 0 0 4.24-2.163 12.939 12.939 0 0 0 1.788-1.692 13.243 13.243 0 0 0 2.535-4.391c.53-1.542.758-3.172.675-4.8a12.582 12.582 0 0 0-.345-2.341 11.88 11.88 0 0 0-1.969-4.229 1 1 0 1 1 1.616-1.179 13.96 13.96 0 0 1 1.39 2.356c.382.828.684 1.69.9 2.576.218.89.352 1.8.4 2.716a14.773 14.773 0 0 1-.781 5.547 15.067 15.067 0 0 1-2.916 5.061 14.669 14.669 0 0 1-6.965 4.46c-.345.1-.7.176-1.047.249A27.97 27.97 0 0 0 28 56c1.604.002 3.19-.332 4.658-.979a11.8 11.8 0 0 0 2.034-1.151 12.311 12.311 0 0 0 3.249-3.385 12.721 12.721 0 0 0 1.811-4.49 13.253 13.253 0 0 0 0-5.073 12.7 12.7 0 0 0-1.811-4.49 12.549 12.549 0 0 0-1.47-1.855 12.18 12.18 0 0 0-1.778-1.528 11.8 11.8 0 0 0-2.036-1.149 1 1 0 1 1 .807-1.83 13.924 13.924 0 0 1 4.45 3.125 14.652 14.652 0 0 1 2.986 4.62c.357.88.629 1.793.813 2.725.376 1.93.376 3.913 0 5.843a14.943 14.943 0 0 1-.813 2.726 14.616 14.616 0 0 1-2.991 4.621c-.247.256-.51.5-.776.734a27.769 27.769 0 0 0 5.071-2.349 11.213 11.213 0 0 0 3.335-3.04c.461-.63.859-1.306 1.187-2.015.329-.71.589-1.452.776-2.212.188-.768.304-1.553.345-2.343.042-.801.008-1.605-.1-2.4a13.017 13.017 0 0 0-.57-2.395 13.267 13.267 0 0 0-2.536-4.392 12.692 12.692 0 0 0-6.017-3.854 12.218 12.218 0 0 0-2.3-.434 11.64 11.64 0 0 0-2.339.021 1 1 0 0 1-.216-1.988 13.8 13.8 0 0 1 2.735-.025c.908.082 1.806.251 2.682.505A14.661 14.661 0 0 1 46.147 32a15.21 15.21 0 0 1 2.923 5.06 14.8 14.8 0 0 1 .78 5.546 14.626 14.626 0 0 1-.4 2.717 11.63 11.63 0 0 1-.3.991 28.109 28.109 0 0 0 3.21-4.539 11.232 11.232 0 0 0 1.366-4.3c.084-.777.091-1.56.021-2.338a12.346 12.346 0 0 0-1.307-4.5 12.764 12.764 0 0 0-2.981-3.816 13.23 13.23 0 0 0-4.394-2.537 12.782 12.782 0 0 0-4.795-.674 12.443 12.443 0 0 0-4.555 1.121c-.709.328-1.384.725-2.015 1.185a1 1 0 0 1-1.178-1.616 13.868 13.868 0 0 1 4.932-2.288c.89-.219 1.8-.353 2.716-.4a14.769 14.769 0 0 1 5.546.779c1.86.638 3.578 1.63 5.06 2.922.716.625 1.37 1.317 1.954 2.066a14.606 14.606 0 0 1 2.507 4.9c.1.344.176.694.249 1.044.341-1.754.513-3.536.514-5.323a11.518 11.518 0 0 0-.979-4.657 12.1 12.1 0 0 0-2.679-3.814 12.593 12.593 0 0 0-3.988-2.581 12.966 12.966 0 0 0-2.359-.7 13.309 13.309 0 0 0-5.071 0 12.671 12.671 0 0 0-6.348 3.281 12.275 12.275 0 0 0-1.528 1.779c-.449.639-.833 1.32-1.148 2.035a1 1 0 1 1-1.83-.806c.369-.835.818-1.633 1.342-2.381z"></path></g><!----></svg>